<svg xmlns="http://www.w3.org/2000/svg" version="1.0" preserveAspectRatio="xMidYMid meet" viewBox="134.11 134.23 181.63 181.77">
    <g transform="translate(0.000000,612.000000) scale(0.050000,-0.050000)" stroke="none">
        <path fill="#0F248D" d="M5963 9528 c-155 -41 -401 -168 -653 -337 l-220 -147 -10 154 c-18 281 -59 302 -580 302 -591 0 -580 11 -580 -586 0 -613 19 -594 -594 -594 -599 0 -586 14 -586 -596 0 -508 30 -564 309 -564 161 0 162 16 -21 -261 -407 -617 -458 -979 -136 -979 134 0 559 176 543 225 -21 63 -71 60 -254 -13 -347 -141 -373 -127 -245 128 394 785 1735 2196 2694 2836 223 148 479 284 537 284 53 0 37 -85 -59 -321 -73 -183 -76 -233 -13 -254 35 -12 186 321 210 462 44 257 -61 337 -342 261z"/>
        <path fill="#008738" d="M5032 8188 c-224 -196 -879 -851 -1008 -1008 l-107 -130 2 -449 c3 -638 -15 -619 581 -619 591 0 580 -11 580 594 0 602 -18 584 594 584 599 0 586 -12 585 590 -2 581 15 565 -627 574 l-439 6 -161 -142z"/>
    </g>
</svg>